<svg width="16" height="20" viewBox="0 0 16 20" fill="none" xmlns="http://www.w3.org/2000/svg">
<path d="M10 18C10 18.55 9.80378 19.0214 9.41211 19.4131C9.02052 19.8045 8.54981 20 8 20C7.45019 20 6.97948 19.8045 6.58789 19.4131C6.19622 19.0214 6 18.55 6 18H10ZM8 0C8.41663 0 8.77085 0.145887 9.0625 0.4375C9.35413 0.729129 9.49996 1.0834 9.5 1.5V2.2002C10.8333 2.53352 11.9167 3.23756 12.75 4.3125C13.5833 5.38746 14 6.61673 14 8V15H15C15.2833 15 15.5212 15.0964 15.7129 15.2881C15.9042 15.4796 16 15.7169 16 16C16 16.2833 15.9045 16.5212 15.7129 16.7129C15.5212 16.9046 15.2833 17 15 17H1C0.716667 17 0.478776 16.9046 0.287109 16.7129C0.0954962 16.5212 0 16.2833 0 16C3.62841e-05 15.7169 0.0957506 15.4796 0.287109 15.2881C0.478776 15.0964 0.716667 15 1 15H2V8C2.00003 6.61673 2.4167 5.38746 3.25 4.3125C4.08332 3.23756 5.16671 2.53352 6.5 2.2002V1.5C6.50004 1.0834 6.64587 0.729129 6.9375 0.4375C7.22915 0.145887 7.58337 0 8 0ZM8 4C6.90004 4 5.95812 4.39152 5.1748 5.1748C4.39151 5.9581 4.00004 6.90007 4 8V15H12V8C12 6.90007 11.6085 5.9581 10.8252 5.1748C10.0419 4.39152 9.09996 4 8 4Z" fill="#212427"/>
</svg>
